<?xml version="1.0" standalone="no"?>
<!DOCTYPE svg PUBLIC "-//W3C//DTD SVG 20010904//EN"
 "http://www.w3.org/TR/2001/REC-SVG-20010904/DTD/svg10.dtd">
<svg version="1.0" xmlns="http://www.w3.org/2000/svg"
 width="700.000000pt" height="700.000000pt" viewBox="0 0 700.000000 700.000000"
 preserveAspectRatio="xMidYMid meet">
<metadata>
Created by potrace 1.14, written by Peter Selinger 2001-2017
</metadata>
<g transform="translate(0.000000,700.000000) scale(0.100000,-0.100000)"
fill="#000000" stroke="none">
<path d="M0 3500 l0 -3500 3500 0 3500 0 0 3500 0 3500 -3500 0 -3500 0 0
-3500z m3773 1111 c220 -447 270 -539 289 -544 13 -3 283 -43 600 -89 318 -45
578 -86 578 -89 0 -4 -193 -195 -430 -425 -237 -231 -430 -426 -430 -436 0 -9
45 -279 100 -599 55 -321 98 -584 97 -586 -2 -1 -243 123 -536 277 -293 154
-536 280 -541 280 -4 0 -248 -126 -541 -280 -292 -154 -534 -279 -535 -277 -2
2 41 265 96 586 55 320 100 590 100 600 0 9 -187 199 -430 435 -237 230 -430
422 -430 427 0 5 9 9 21 9 22 0 1104 156 1152 166 26 5 49 49 294 545 146 296
269 539 273 539 4 0 126 -242 273 -539z"/>
</g>
</svg>
